<svg width="24" height="24" viewBox="0 0 24 24" fill="none" xmlns="http://www.w3.org/2000/svg">
<path d="M7.06274 2.93726L7.62843 3.50294L7.62843 3.50294L7.06274 2.93726ZM2.93726 7.06274L2.37157 6.49706L2.37157 6.49706L2.93726 7.06274ZM2.93726 16.9373L3.50294 16.3716L3.50294 16.3716L2.93726 16.9373ZM7.06274 21.0627L6.49706 21.6284L6.49706 21.6284L7.06274 21.0627ZM21.0627 7.06274L21.6284 6.49706L21.6284 6.49706L21.0627 7.06274ZM16.9373 2.93726L16.3716 3.50294L16.3716 3.50294L16.9373 2.93726ZM21.9447 8.36154L22.7226 8.17478L22.7226 8.17478L21.9447 8.36154ZM21.7053 7.78343L22.3874 7.36543L22.3874 7.36543L21.7053 7.78343ZM21.7053 16.2166L22.3874 16.6346L22.3874 16.6346L21.7053 16.2166ZM21.9447 15.6385L22.7226 15.8252L22.7226 15.8252L21.9447 15.6385ZM15.6385 21.9447L15.8252 22.7226L15.8252 22.7226L15.6385 21.9447ZM16.2166 21.7053L16.6346 22.3874L16.6346 22.3874L16.2166 21.7053ZM7.78343 21.7053L7.36543 22.3874L7.36543 22.3874L7.78343 21.7053ZM8.36154 21.9447L8.17478 22.7226L8.17478 22.7226L8.36154 21.9447ZM2.05526 15.6385L1.27736 15.8252L1.27736 15.8252L2.05526 15.6385ZM2.29472 16.2166L2.97683 15.7986L2.97683 15.7986L2.29472 16.2166ZM2.29472 7.78343L2.97683 8.20143L2.97683 8.20143L2.29472 7.78343ZM2.05526 8.36154L2.83316 8.54829L2.83316 8.54829L2.05526 8.36154ZM8.36154 2.05526L8.54829 2.83316L8.54829 2.83316L8.36154 2.05526ZM7.78343 2.29472L8.20143 2.97683L8.20143 2.97683L7.78343 2.29472ZM15.6385 2.05526L15.8252 1.27736L15.8252 1.27736L15.6385 2.05526ZM16.2166 2.29472L15.7986 2.97683L15.7986 2.97683L16.2166 2.29472ZM7.43437 15.4343C7.12195 15.7467 7.12195 16.2532 7.43437 16.5656C7.74679 16.878 8.25332 16.878 8.56574 16.5656L7.43437 15.4343ZM16.5657 8.56563C16.8782 8.25321 16.8782 7.74668 16.5657 7.43426C16.2533 7.12184 15.7468 7.12184 15.4344 7.43426L16.5657 8.56563ZM14.6745 1.2H9.32548V2.8H14.6745V1.2ZM6.49706 2.37157L2.37157 6.49706L3.50294 7.62843L7.62843 3.50294L6.49706 2.37157ZM1.2 9.32548V14.6745H2.8V9.32548H1.2ZM2.37157 17.5029L6.49706 21.6284L7.62843 20.4971L3.50294 16.3716L2.37157 17.5029ZM9.32548 22.8H14.6745V21.2H9.32548V22.8ZM17.5029 21.6284L21.6284 17.5029L20.4971 16.3716L16.3716 20.4971L17.5029 21.6284ZM22.8 14.6745V9.32548H21.2V14.6745H22.8ZM21.6284 6.49706L17.5029 2.37157L16.3716 3.50294L20.4971 7.62843L21.6284 6.49706ZM22.8 9.32548C22.8 8.87438 22.8051 8.51844 22.7226 8.17478L21.1668 8.54829C21.1949 8.66498 21.2 8.79822 21.2 9.32548H22.8ZM20.4971 7.62843C20.8699 8.00125 20.9605 8.09911 21.0232 8.20143L22.3874 7.36543C22.2027 7.06409 21.9474 6.81604 21.6284 6.49706L20.4971 7.62843ZM22.7226 8.17478C22.654 7.88908 22.5409 7.61595 22.3874 7.36543L21.0232 8.20143C21.089 8.3088 21.1374 8.42585 21.1668 8.54829L22.7226 8.17478ZM21.6284 17.5029C21.9474 17.184 22.2027 16.9359 22.3874 16.6346L21.0232 15.7986C20.9605 15.9009 20.8699 15.9987 20.4971 16.3716L21.6284 17.5029ZM21.2 14.6745C21.2 15.2018 21.1949 15.335 21.1668 15.4517L22.7226 15.8252C22.8051 15.4816 22.8 15.1256 22.8 14.6745H21.2ZM22.3874 16.6346C22.5409 16.384 22.654 16.1109 22.7226 15.8252L21.1668 15.4517C21.1374 15.5741 21.089 15.6912 21.0232 15.7986L22.3874 16.6346ZM14.6745 22.8C15.1256 22.8 15.4816 22.8051 15.8252 22.7226L15.4517 21.1668C15.335 21.1949 15.2018 21.2 14.6745 21.2V22.8ZM16.3716 20.4971C15.9987 20.8699 15.9009 20.9605 15.7986 21.0232L16.6346 22.3874C16.9359 22.2027 17.184 21.9474 17.5029 21.6284L16.3716 20.4971ZM15.8252 22.7226C16.1109 22.654 16.384 22.5409 16.6346 22.3874L15.7986 21.0232C15.6912 21.089 15.5741 21.1374 15.4517 21.1668L15.8252 22.7226ZM6.49706 21.6284C6.81604 21.9474 7.06409 22.2027 7.36543 22.3874L8.20143 21.0232C8.09911 20.9605 8.00125 20.8699 7.62843 20.4971L6.49706 21.6284ZM9.32548 21.2C8.79822 21.2 8.66498 21.1949 8.54829 21.1668L8.17478 22.7226C8.51844 22.8051 8.87438 22.8 9.32548 22.8V21.2ZM7.36543 22.3874C7.61595 22.5409 7.88908 22.654 8.17478 22.7226L8.54829 21.1668C8.42585 21.1374 8.3088 21.089 8.20143 21.0232L7.36543 22.3874ZM1.2 14.6745C1.2 15.1256 1.19486 15.4816 1.27736 15.8252L2.83316 15.4517C2.80514 15.335 2.8 15.2018 2.8 14.6745H1.2ZM3.50294 16.3716C3.13011 15.9987 3.03953 15.9009 2.97683 15.7986L1.61261 16.6346C1.79727 16.9359 2.0526 17.184 2.37157 17.5029L3.50294 16.3716ZM1.27736 15.8252C1.34596 16.1109 1.45909 16.384 1.61261 16.6346L2.97683 15.7986C2.91104 15.6912 2.86255 15.5742 2.83316 15.4517L1.27736 15.8252ZM2.37157 6.49706C2.0526 6.81603 1.79727 7.06409 1.61261 7.36543L2.97683 8.20143C3.03953 8.09911 3.13012 8.00125 3.50294 7.62843L2.37157 6.49706ZM2.8 9.32548C2.8 8.79822 2.80514 8.66498 2.83316 8.54829L1.27736 8.17478C1.19486 8.51844 1.2 8.87438 1.2 9.32548H2.8ZM1.61261 7.36543C1.45909 7.61595 1.34596 7.88908 1.27736 8.17478L2.83316 8.54829C2.86255 8.42585 2.91104 8.3088 2.97683 8.20143L1.61261 7.36543ZM9.32548 1.2C8.87438 1.2 8.51844 1.19486 8.17478 1.27736L8.54829 2.83316C8.66498 2.80514 8.79822 2.8 9.32548 2.8V1.2ZM7.62843 3.50294C8.00126 3.13011 8.09911 3.03953 8.20143 2.97683L7.36543 1.61261C7.06409 1.79727 6.81603 2.0526 6.49706 2.37157L7.62843 3.50294ZM8.17478 1.27736C7.88908 1.34596 7.61595 1.45909 7.36543 1.61261L8.20143 2.97683C8.3088 2.91104 8.42585 2.86255 8.54829 2.83316L8.17478 1.27736ZM14.6745 2.8C15.2018 2.8 15.335 2.80514 15.4517 2.83316L15.8252 1.27736C15.4816 1.19486 15.1256 1.2 14.6745 1.2V2.8ZM17.5029 2.37157C17.184 2.0526 16.9359 1.79727 16.6346 1.61261L15.7986 2.97683C15.9009 3.03953 15.9987 3.13011 16.3716 3.50294L17.5029 2.37157ZM15.4517 2.83316C15.5742 2.86255 15.6912 2.91104 15.7986 2.97683L16.6346 1.61261C16.384 1.45909 16.1109 1.34596 15.8252 1.27736L15.4517 2.83316ZM8.56574 16.5656L16.5657 8.56563L15.4344 7.43426L7.43437 15.4343L8.56574 16.5656Z" fill="black"/>
</svg>
