<svg width="24" height="24" viewBox="0 0 24 24" fill="none" xmlns="http://www.w3.org/2000/svg">
<path d="M12 22C17.5228 22 22 17.5228 22 12C22 6.47715 17.5228 2 12 2C6.47715 2 2 6.47715 2 12C2 17.5228 6.47715 22 12 22Z" stroke="black" stroke-width="1.6" stroke-linecap="round" stroke-linejoin="round"/>
<path d="M8.66666 7.55554H12.3935C12.9872 7.55554 13.4942 7.62862 13.9144 7.77477C14.3437 7.91178 14.6953 8.10817 14.9694 8.36393C15.2434 8.61056 15.4444 8.90743 15.5722 9.25454C15.7093 9.60164 15.7778 9.97615 15.7778 10.3781V10.6658C15.7778 11.0677 15.7093 11.4514 15.5722 11.8167C15.4352 12.173 15.2251 12.4881 14.942 12.7621C14.6588 13.027 14.3071 13.2417 13.887 13.4061C13.4668 13.5614 12.9689 13.639 12.3935 13.639H10.4205V17.4344H8.66666V7.55554ZM10.4205 9.02161V12.1593H12.1606C12.736 12.1593 13.1882 12.0497 13.517 11.8304C13.8458 11.6112 14.0103 11.2139 14.0103 10.6384V10.3918C14.0103 10.1177 13.9692 9.89394 13.887 9.72039C13.8047 9.54684 13.686 9.40982 13.5307 9.30934C13.3846 9.19973 13.2064 9.12665 12.9963 9.09012C12.7863 9.04445 12.5579 9.02161 12.3113 9.02161H10.4205Z" fill="black"/>
</svg>
