<svg width="24" height="25" viewBox="0 0 24 25" fill="none" xmlns="http://www.w3.org/2000/svg">
<path d="M12 13.64C12.8284 13.64 13.5 12.9684 13.5 12.14C13.5 11.3116 12.8284 10.64 12 10.64C11.1716 10.64 10.5 11.3116 10.5 12.14C10.5 12.9684 11.1716 13.64 12 13.64Z" fill="black"/>
<path d="M21.8701 11.64C21.2301 10.53 17.7101 4.96001 11.7301 5.14001C6.20007 5.28001 3.00007 10.14 2.13007 11.64C2.0423 11.792 1.99609 11.9645 1.99609 12.14C1.99609 12.3155 2.0423 12.488 2.13007 12.64C2.76007 13.73 6.13007 19.14 12.0201 19.14H12.2701C17.8001 19 21.0101 14.14 21.8701 12.64C21.9578 12.488 22.004 12.3155 22.004 12.14C22.004 11.9645 21.9578 11.792 21.8701 11.64ZM12.0001 15.64C11.3078 15.64 10.6311 15.4347 10.0556 15.0502C9.48 14.6656 9.0314 14.1189 8.76649 13.4794C8.50158 12.8399 8.43227 12.1361 8.56732 11.4572C8.70237 10.7783 9.03571 10.1546 9.5252 9.66513C10.0147 9.17565 10.6383 8.84231 11.3173 8.70726C11.9962 8.57221 12.6999 8.64152 13.3395 8.90643C13.979 9.17134 14.5256 9.61994 14.9102 10.1955C15.2948 10.7711 15.5001 11.4478 15.5001 12.14C15.5001 13.0683 15.1313 13.9585 14.4749 14.6149C13.8186 15.2713 12.9283 15.64 12.0001 15.64Z" fill="black"/>
</svg>
