<svg width="45" height="44" viewBox="0 0 45 44" fill="none" xmlns="http://www.w3.org/2000/svg">
<path d="M20 23H24.1927C24.8606 23 25.431 23.0822 25.9037 23.2466C26.3866 23.4008 26.7823 23.6217 27.0906 23.9094C27.3988 24.1869 27.6249 24.5209 27.7688 24.9114C27.9229 25.3019 28 25.7232 28 26.1753V26.499C28 26.9512 27.9229 27.3828 27.7688 27.7938C27.6146 28.1946 27.3783 28.5491 27.0597 28.8574C26.7412 29.1554 26.3455 29.3969 25.8728 29.5819C25.4001 29.7566 24.8401 29.8439 24.1927 29.8439H21.973V33.1503H20V23ZM21.973 24.6493V28.1792H23.9306C24.578 28.1792 25.0867 28.0559 25.4566 27.8092C25.8266 27.5626 26.0116 27.1156 26.0116 26.4682V26.1908C26.0116 25.8825 25.9653 25.6307 25.8728 25.4355C25.7803 25.2402 25.6468 25.0861 25.4721 24.973C25.3076 24.8497 25.1073 24.7675 24.8709 24.7264C24.6346 24.675 24.3776 24.6493 24.1002 24.6493H21.973Z" fill="black"/>
<path fill-rule="evenodd" clip-rule="evenodd" d="M35.0358 7.29193C33.6551 9.36301 31.7566 10.981 29.6855 12.1029H45.0028V25.306H42.3493V43.73H2.65357V25.306H0V12.1029H15.8567C13.2894 10.981 10.4201 9.08255 9.55717 6.12695C8.60793 2.82616 10.8516 0.884524 13.311 0.884524C13.9798 0.884524 14.6702 1.01397 15.3174 1.316C18.6829 2.86931 21.0776 6.10537 22.3073 11.542C22.3073 11.542 23.9253 4.94039 29.3619 1.316C30.7426 0.409901 32.0154 0 33.0941 0C36.2223 0 37.6246 3.43023 35.0358 7.29193ZM33.5472 2.91246C33.5256 2.84774 33.4609 2.73987 33.0941 2.73987C32.8137 2.73987 32.037 2.82616 30.872 3.60282C27.7654 5.6739 26.1042 9.0394 25.3923 10.8947C27.9812 10.2475 30.872 8.60793 32.749 5.80334C33.6982 4.37947 33.7413 3.30078 33.5472 2.91246ZM12.2323 4.05587C11.9734 4.40105 12.0813 5.02668 12.1892 5.37186L12.2107 5.39344C12.9658 8.00386 16.6981 9.68661 19.2222 10.4633C18.1651 7.07619 16.5255 4.89724 14.1955 3.81855C13.9151 3.68911 13.6346 3.62439 13.3326 3.62439C12.858 3.62439 12.4265 3.79698 12.2323 4.05587ZM23 38C28.5228 38 33 33.5228 33 28C33 22.4772 28.5228 18 23 18C17.4772 18 13 22.4772 13 28C13 33.5228 17.4772 38 23 38Z" fill="black"/>
</svg>
