<svg width="24" height="24" viewBox="0 0 24 24" fill="none" xmlns="http://www.w3.org/2000/svg">
<path d="M12.0049 12.0051V7.50269" stroke="black" stroke-width="1.6" stroke-linecap="round" stroke-linejoin="round"/>
<path d="M3 10.8795C3.27562 8.69127 4.34471 6.68031 6.0045 5.22799C7.6643 3.77567 9.79937 2.98299 12.0048 3.00028C13.4614 3.00183 14.8958 3.35669 16.1851 4.03443C17.4744 4.71217 18.5801 5.69256 19.4072 6.8915C20.2344 8.09043 20.7583 9.47212 20.9341 10.918C21.11 12.364 20.9324 13.831 20.4167 15.1932C19.901 16.5554 19.0626 17.7722 17.9733 18.7392C16.884 19.7062 15.5764 20.3945 14.1626 20.7451C12.7489 21.0957 11.2712 21.0981 9.85628 20.7521C8.44139 20.4061 7.13155 19.7221 6.03911 18.7586L3 16.0572" stroke="black" stroke-width="1.6" stroke-linecap="round" stroke-linejoin="round"/>
<path d="M8.62799 15.3818H3V21.0098" stroke="black" stroke-width="1.6" stroke-linecap="round" stroke-linejoin="round"/>
</svg>
