<svg width="24" height="24" viewBox="0 0 24 24" fill="none" xmlns="http://www.w3.org/2000/svg">
<path d="M2.20124 19.7457L2.58158 19.0419L2.58158 19.0419L2.20124 19.7457ZM1.23979 18.726L0.518689 19.0724L0.518689 19.0724L1.23979 18.726ZM22.9998 16.967L23.7998 16.9699L23.7998 16.9699L22.9998 16.967ZM22.7606 18.726L23.4817 19.0724L23.4817 19.0724L22.7606 18.726ZM21.7991 19.7457L22.1795 20.4495L22.1795 20.4495L21.7991 19.7457ZM21.7991 6.25432L22.1795 5.55051L22.1795 5.55051L21.7991 6.25432ZM22.7606 7.27402L23.4817 6.92759L23.4817 6.92759L22.7606 7.27402ZM2.20124 6.25432L2.58158 6.95813L2.58158 6.95813L2.20124 6.25432ZM1.23979 7.27402L1.96089 7.62045L1.96089 7.62045L1.23979 7.27402ZM22.5614 16.4693L22.4497 17.2615L22.4497 17.2615L22.5614 16.4693ZM22.5612 9.53071L22.673 10.3229L22.673 10.3229L22.5612 9.53071ZM22.9991 9.03275L22.1991 9.03828L22.1991 9.03828L22.9991 9.03275ZM22.8728 9.45953L23.3198 10.123L23.3198 10.123L22.8728 9.45953ZM22.9757 9.33399L22.2403 9.01895L22.2403 9.01898L22.9757 9.33399ZM22.9756 16.6654L23.7102 16.3487L23.7102 16.3487L22.9756 16.6654ZM22.8727 16.5403L22.4264 17.2042L22.4264 17.2043L22.8727 16.5403ZM17.2003 6C17.2003 5.55817 16.8421 5.2 16.4003 5.2C15.9584 5.2 15.6003 5.55817 15.6003 6H17.2003ZM15.6003 20C15.6003 20.4418 15.9584 20.8 16.4003 20.8C16.8421 20.8 17.2003 20.4418 17.2003 20H15.6003ZM5.40007 9.86667C4.95824 9.86667 4.60007 10.2248 4.60007 10.6667C4.60007 11.1085 4.95824 11.4667 5.40007 11.4667V9.86667ZM12.0002 11.4667C12.442 11.4667 12.8002 11.1085 12.8002 10.6667C12.8002 10.2248 12.442 9.86667 12.0002 9.86667V11.4667ZM5.40007 14.5333C4.95824 14.5333 4.60007 14.8915 4.60007 15.3333C4.60007 15.7752 4.95824 16.1333 5.40007 16.1333V14.5333ZM12.0002 16.1333C12.442 16.1333 12.8002 15.7752 12.8002 15.3333C12.8002 14.8915 12.442 14.5333 12.0002 14.5333V16.1333ZM4.52006 6.8H19.4803V5.2H4.52006V6.8ZM19.4803 19.2H4.52006V20.8H19.4803V19.2ZM4.52006 19.2C3.89 19.2 3.46847 19.1993 3.14414 19.1712C2.83064 19.144 2.68128 19.0958 2.58158 19.0419L1.8209 20.4495C2.19182 20.6499 2.5858 20.7288 3.00601 20.7652C3.41541 20.8007 3.91798 20.8 4.52006 20.8V19.2ZM0.2 16.5C0.2 17.7383 0.182407 18.3724 0.518689 19.0724L1.96089 18.3795C1.81759 18.0813 1.8 17.8753 1.8 16.5H0.2ZM2.58158 19.0419C2.32153 18.9013 2.1015 18.6722 1.96089 18.3795L0.518689 19.0724C0.79993 19.6578 1.25303 20.1426 1.82091 20.4495L2.58158 19.0419ZM22.1998 16.964C22.1962 17.9313 22.1594 18.13 22.0395 18.3795L23.4817 19.0724C23.779 18.4535 23.7964 17.9035 23.7998 16.9699L22.1998 16.964ZM19.4803 20.8C20.0824 20.8 20.5849 20.8007 20.9943 20.7652C21.4146 20.7288 21.8085 20.6499 22.1795 20.4495L21.4188 19.0419C21.3191 19.0958 21.1697 19.144 20.8562 19.1712C20.5319 19.1993 20.1104 19.2 19.4803 19.2V20.8ZM22.0395 18.3795C21.8989 18.6722 21.6788 18.9013 21.4188 19.0419L22.1795 20.4495C22.7473 20.1426 23.2004 19.6578 23.4817 19.0724L22.0395 18.3795ZM19.4803 6.8C20.1104 6.8 20.5319 6.8007 20.8562 6.8288C21.1697 6.85597 21.3191 6.90425 21.4188 6.95813L22.1795 5.55051C21.8085 5.35007 21.4146 5.27119 20.9943 5.23478C20.5849 5.1993 20.0824 5.2 19.4803 5.2V6.8ZM21.4188 6.95813C21.6788 7.09866 21.8989 7.32777 22.0395 7.62045L23.4817 6.92759C23.2004 6.34218 22.7473 5.85739 22.1795 5.55051L21.4188 6.95813ZM4.52006 5.2C3.91798 5.2 3.41541 5.1993 3.00601 5.23478C2.5858 5.27119 2.19182 5.35007 1.82091 5.55051L2.58158 6.95813C2.68128 6.90425 2.83064 6.85597 3.14414 6.8288C3.46847 6.8007 3.89 6.8 4.52006 6.8V5.2ZM1.8 9.5C1.8 8.12469 1.81759 7.91873 1.96089 7.62045L0.518689 6.92759C0.182407 7.62757 0.2 8.26173 0.2 9.5H1.8ZM1.82091 5.55051C1.25303 5.85739 0.79993 6.34218 0.518689 6.92759L1.96089 7.62045C2.1015 7.32777 2.32153 7.09866 2.58158 6.95813L1.82091 5.55051ZM22.6731 15.6771C21.4823 15.5093 20.5003 14.407 20.5003 13H18.9003C18.9003 15.1433 20.4104 16.974 22.4497 17.2615L22.6731 15.6771ZM20.5003 13C20.5003 11.593 21.4823 10.4908 22.673 10.3229L22.4495 8.73855C20.4103 9.02611 18.9003 10.8568 18.9003 13H20.5003ZM23.7991 9.02723C23.7931 8.16533 23.7684 7.52439 23.4817 6.92759L22.0395 7.62045C22.148 7.84635 22.1928 8.12979 22.1991 9.03828L23.7991 9.02723ZM1.8 16.5V9.5H0.2V16.5H1.8ZM22.673 10.3229C22.7486 10.3122 22.8449 10.299 22.9269 10.2819C23.0044 10.2657 23.1628 10.2288 23.3198 10.123L22.4258 8.79608C22.4822 8.75808 22.5315 8.73766 22.5604 8.72747C22.5748 8.72235 22.5858 8.71924 22.5917 8.71766C22.5977 8.71607 22.6005 8.71553 22.5989 8.71586C22.5945 8.71678 22.582 8.71916 22.5544 8.72341C22.527 8.72762 22.4944 8.73223 22.4495 8.73855L22.673 10.3229ZM22.1991 9.03828C22.1994 9.08022 22.1996 9.11008 22.1994 9.1352C22.1993 9.16041 22.1988 9.17127 22.1986 9.1744C22.1984 9.17761 22.1991 9.16246 22.2039 9.1369C22.2091 9.10947 22.2194 9.06778 22.2403 9.01895L23.711 9.64904C23.7769 9.49523 23.7908 9.35337 23.7958 9.26981C23.8006 9.18918 23.7995 9.09717 23.7991 9.02722L22.1991 9.03828ZM23.3198 10.123C23.5007 10.0011 23.6285 9.84177 23.7111 9.64901L22.2403 9.01898C22.2515 8.99287 22.2744 8.94769 22.3149 8.89825C22.3559 8.84822 22.3976 8.81507 22.4258 8.79608L23.3198 10.123ZM23.7998 16.9699C23.8001 16.8997 23.8008 16.8078 23.7958 16.7273C23.7906 16.6441 23.7765 16.5023 23.7102 16.3487L22.241 16.9821C22.2199 16.9332 22.2094 16.8915 22.2042 16.8642C22.1994 16.8388 22.1987 16.8238 22.1989 16.8272C22.1991 16.8305 22.1996 16.8415 22.1999 16.8668C22.2001 16.892 22.2 16.922 22.1998 16.964L23.7998 16.9699ZM22.4497 17.2615C22.4946 17.2678 22.5271 17.2724 22.5545 17.2766C22.5822 17.2809 22.5948 17.2832 22.5992 17.2842C22.6008 17.2845 22.5981 17.284 22.5922 17.2824C22.5862 17.2808 22.5753 17.2777 22.5609 17.2727C22.5322 17.2625 22.4828 17.2422 22.4264 17.2042L23.319 15.8764C23.1621 15.7709 23.0039 15.7342 22.9267 15.718C22.8449 15.7009 22.7487 15.6878 22.6731 15.6771L22.4497 17.2615ZM23.7102 16.3487C23.6274 16.1564 23.4998 15.9979 23.319 15.8764L22.4264 17.2043C22.3987 17.1856 22.3569 17.1526 22.3157 17.1024C22.2749 17.0529 22.252 17.0077 22.241 16.9821L23.7102 16.3487ZM15.6003 6V20H17.2003V6H15.6003ZM5.40007 11.4667H12.0002V9.86667H5.40007V11.4667ZM5.40007 16.1333H12.0002V14.5333H5.40007V16.1333Z" fill="black"/>
</svg>
