<svg width="16" height="18" viewBox="0 0 16 18" fill="none" xmlns="http://www.w3.org/2000/svg">
<path fill-rule="evenodd" clip-rule="evenodd" d="M8.0036 0.375L0.5 2.56485V7.05362C0.5 11.775 3.5217 15.9665 8.00109 17.4585C12.4793 15.9664 15.5 11.7759 15.5 7.0557V2.56485L8.0036 0.375ZM12.3156 6.9407C12.6281 6.62828 12.6281 6.12175 12.3156 5.80933C12.0032 5.49691 11.4967 5.49691 11.1843 5.80933L7.24995 9.74364L5.19064 7.68433C4.87822 7.37191 4.37169 7.37191 4.05927 7.68433C3.74685 7.99675 3.74685 8.50328 4.05927 8.8157L6.68427 11.4407C6.99669 11.7531 7.50322 11.7531 7.81564 11.4407L12.3156 6.9407Z" fill="black"/>
</svg>
