<svg width="24" height="24" viewBox="0 0 24 24" fill="none" xmlns="http://www.w3.org/2000/svg">
<path d="M11.9082 13.0954V1L20.7049 5.39834L11.9082 9.79668" stroke="black" stroke-width="2" stroke-linecap="round" stroke-linejoin="round"/>
<path d="M21.3095 10.0496C21.8946 11.8531 21.9493 13.7867 21.4672 15.6204C20.985 17.4541 19.9863 19.1106 18.5897 20.393C17.1931 21.6754 15.4576 22.5297 13.5895 22.8541C11.7215 23.1785 9.79953 22.9594 8.05238 22.223C6.30522 21.4865 4.8064 20.2637 3.73423 18.6999C2.66206 17.1362 2.06167 15.2973 2.0045 13.4021C1.94733 11.507 2.43578 9.63529 3.41174 8.00974C4.3877 6.38419 5.81008 5.07322 7.50967 4.23279" stroke="black" stroke-width="2" stroke-linecap="round" stroke-linejoin="round"/>
<path d="M7.50943 9.79669C6.95844 10.5301 6.59972 11.3898 6.46598 12.2974C6.33223 13.2049 6.4277 14.1315 6.74368 14.9927C7.05967 15.8539 7.58613 16.6224 8.27511 17.2281C8.96408 17.8338 9.79365 18.2575 10.6883 18.4605C11.5829 18.6635 12.5141 18.6395 13.397 18.3906C14.2799 18.1417 15.0866 17.6758 15.7434 17.0353C16.4002 16.3949 16.8863 15.6003 17.1574 14.724C17.4286 13.8476 17.4761 12.9173 17.2957 12.0179" stroke="black" stroke-width="2" stroke-linecap="round" stroke-linejoin="round"/>
</svg>
