<svg width="24" height="24" viewBox="0 0 24 24" fill="none" xmlns="http://www.w3.org/2000/svg">
<path fill-rule="evenodd" clip-rule="evenodd" d="M8.24948 7.43555H15.2792C18.4345 7.43555 21.0145 10.0794 21.0145 13.3128V15.2109C21.0145 18.4443 18.4345 21.0882 15.2792 21.0882H8.24948C5.09418 21.0882 2.51416 18.4443 2.51416 15.2109V13.3128C2.51416 10.0794 5.09418 7.43555 8.24948 7.43555Z" fill="white"/>
<path d="M15.5147 7.90006H8.48496C7.03369 7.90006 5.71318 8.50744 4.75438 9.48997C3.79559 10.4725 3.20288 11.8257 3.20288 13.3129V15.211C3.20288 16.6981 3.79559 18.0513 4.75438 19.0339C5.71318 20.0164 7.03369 20.6238 8.48496 20.6238H15.5147C16.9659 20.6238 18.2864 20.0164 19.2452 19.0339C20.204 18.0513 20.7967 16.6981 20.7967 15.211V13.3129C20.7967 11.8257 20.204 10.4725 19.2452 9.48997C18.2864 8.50744 16.9659 7.90006 15.5147 7.90006ZM8.48496 6.97113H15.5147C17.2187 6.97113 18.7658 7.68569 19.8859 8.83346C21.0059 9.98123 21.7032 11.5711 21.7032 13.3129V15.211C21.7032 16.9572 21.0059 18.5426 19.8859 19.6904C18.7658 20.8381 17.2143 21.5527 15.5147 21.5527H8.48496C6.78092 21.5527 5.23378 20.8381 4.11373 19.6904C2.99369 18.5426 2.29639 16.9527 2.29639 15.211V13.3129C2.29639 11.5667 2.99369 9.98123 4.11373 8.83346C5.23378 7.68569 6.78092 6.97113 8.48496 6.97113Z" fill="#313D3D"/>
<path fill-rule="evenodd" clip-rule="evenodd" d="M12.8566 9.82041C13.9984 9.82041 14.9311 9.05225 14.9311 8.11438V7.43555H9.07373V8.11438C9.07373 9.05225 10.0064 9.82041 11.1482 9.82041H12.8566Z" fill="#F4C62A"/>
<path d="M14.6043 9.68201C14.151 10.0527 13.5278 10.2849 12.8523 10.2849H11.1439C10.4684 10.2849 9.84953 10.0527 9.39193 9.68201C8.91253 9.28453 8.61182 8.73521 8.61182 8.11443V6.97113H15.38V8.11443C15.38 8.73075 15.0793 9.28453 14.5999 9.68201M12.8567 9.35152C13.323 9.35152 13.7414 9.19968 14.0377 8.95405C14.3079 8.73075 14.4779 8.43152 14.4779 8.11443V7.90006H9.52703V8.11443C9.52703 8.43599 9.697 8.73521 9.9672 8.95405C10.2636 9.19968 10.6819 9.35152 11.1483 9.35152H12.8567Z" fill="#313D3D"/>
<path fill-rule="evenodd" clip-rule="evenodd" d="M21.3941 15.2104V13.3123C21.3941 12.5397 21.211 11.8028 20.8711 11.1284H21.4812C22.6144 11.1284 23.5426 11.8832 23.5426 12.8032V15.7195C23.5426 16.6395 22.6144 17.3943 21.4812 17.3943H20.8711C21.2067 16.7199 21.3941 15.983 21.3941 15.2104Z" fill="#F4C62A"/>
<path d="M21.847 13.3126V15.2107C21.847 15.626 21.7991 16.0324 21.7032 16.4344C21.664 16.6041 21.616 16.7649 21.5594 16.9301C21.9908 16.9122 22.3787 16.7693 22.6576 16.5415C22.9235 16.3272 23.0891 16.0369 23.0891 15.7243V12.808C23.0891 12.4953 22.9235 12.205 22.6576 11.9907C22.3787 11.7629 21.9908 11.62 21.5594 11.6021C21.616 11.7629 21.664 11.9281 21.7032 12.0979C21.7991 12.4953 21.847 12.9062 21.847 13.3215M20.9361 15.2107V13.3126C20.9361 12.9643 20.8969 12.6293 20.8185 12.3078C20.74 11.9773 20.618 11.6512 20.4655 11.3386L20.1299 10.6598H21.4809C22.1521 10.6598 22.7666 10.8876 23.2198 11.2538C23.6992 11.6423 23.9999 12.1916 23.9999 12.799V15.7153C23.9999 16.3227 23.6992 16.872 23.2198 17.2606C22.7666 17.6268 22.1521 17.8546 21.4809 17.8546H20.1299L20.4655 17.1757C20.6224 16.8631 20.74 16.5371 20.8185 16.2066C20.8969 15.885 20.9361 15.5501 20.9361 15.2017V15.2107Z" fill="#313D3D"/>
<path fill-rule="evenodd" clip-rule="evenodd" d="M2.61048 15.2104V13.3123C2.61048 12.5397 2.79788 11.8028 3.13346 11.1284H2.52332C1.3902 11.1284 0.461914 11.8832 0.461914 12.8032V15.7195C0.461914 16.6395 1.3902 17.3943 2.52332 17.3943H3.13346C2.79788 16.7199 2.61048 15.983 2.61048 15.2104Z" fill="#F4C62A"/>
<path d="M3.06378 13.3122V15.2102C3.06378 15.5586 3.103 15.8935 3.18145 16.2151C3.2599 16.5456 3.38192 16.8716 3.53446 17.1842L3.87004 17.863H2.51901C1.84786 17.863 1.23336 17.6353 0.780109 17.2691C0.300712 16.8805 0 16.3312 0 15.7238V12.8075C0 12.2001 0.300712 11.6508 0.780109 11.2623C1.23336 10.896 1.84786 10.6683 2.51901 10.6683H3.87004L3.53446 11.3471C3.37757 11.6597 3.2599 11.9858 3.18145 12.3162C3.103 12.6378 3.06378 12.9727 3.06378 13.3211M2.15728 15.2102V13.3122C2.15728 12.8968 2.20522 12.4904 2.3011 12.0885C2.34033 11.9188 2.38827 11.758 2.44492 11.5927C2.01346 11.6106 1.62559 11.7535 1.34667 11.9813C1.08082 12.1957 0.915211 12.4859 0.915211 12.7986V15.7149C0.915211 16.0275 1.08082 16.3178 1.34667 16.5322C1.62559 16.7599 2.01346 16.9028 2.44492 16.9207C2.38827 16.7599 2.34033 16.5947 2.3011 16.425C2.20522 16.0275 2.15728 15.6166 2.15728 15.2013V15.2102Z" fill="#313D3D"/>
<path fill-rule="evenodd" clip-rule="evenodd" d="M7.63558 11.7452H15.8943C17.254 11.7452 18.3697 12.8438 18.3697 14.1881V14.9741C18.3697 16.3184 17.2584 17.417 15.8943 17.417H7.63558C6.27584 17.417 5.16016 16.3184 5.16016 14.9741V14.1881C5.16016 12.8438 6.27584 11.7452 7.63558 11.7452Z" fill="#313D3D"/>
<path d="M2.74951 13.8083L21.2542 13.786V14.7149L2.74951 14.7373V13.8083Z" fill="#313D3D"/>
<path fill-rule="evenodd" clip-rule="evenodd" d="M7.94482 15.0184V13.5088C7.94482 13.1694 8.21503 12.8881 8.55061 12.8881H8.74672C9.07794 12.8881 9.35251 13.165 9.35251 13.5088V15.0184C9.35251 15.3578 9.0823 15.6391 8.74672 15.6391H8.55061C8.21939 15.6391 7.94482 15.3622 7.94482 15.0184Z" fill="#F4C62A"/>
<path fill-rule="evenodd" clip-rule="evenodd" d="M14.6519 15.0184V13.5088C14.6519 13.1694 14.9221 12.8881 15.2576 12.8881H15.4538C15.785 12.8881 16.0595 13.165 16.0595 13.5088V15.0184C16.0595 15.3578 15.7893 15.6391 15.4538 15.6391H15.2576C14.9264 15.6391 14.6519 15.3622 14.6519 15.0184Z" fill="#F4C62A"/>
<path fill-rule="evenodd" clip-rule="evenodd" d="M6.20117 7.63194L6.50188 3.52319H7.15996L7.46068 7.63194H6.8331H6.20117Z" fill="#313D3D"/>
<path fill-rule="evenodd" clip-rule="evenodd" d="M6.83379 2C7.36549 2 7.79259 2.44214 7.79259 2.98253C7.79259 3.52292 7.36113 3.96505 6.83379 3.96505C6.30646 3.96505 5.875 3.52292 5.875 2.98253C5.875 2.44214 6.30646 2 6.83379 2Z" fill="#313D3D"/>
<path fill-rule="evenodd" clip-rule="evenodd" d="M16.5435 7.63194L16.8442 3.52319H17.4979L17.7986 7.63194H17.171H16.5435Z" fill="#313D3D"/>
<path fill-rule="evenodd" clip-rule="evenodd" d="M17.1712 2C17.7029 2 18.13 2.44214 18.13 2.98253C18.13 3.52292 17.6985 3.96505 17.1712 3.96505C16.6439 3.96505 16.2124 3.52292 16.2124 2.98253C16.2124 2.44214 16.6439 2 17.1712 2Z" fill="#313D3D"/>
</svg>
