<svg width="24" height="25" viewBox="0 0 24 25" fill="none" xmlns="http://www.w3.org/2000/svg">
<g clip-path="url(#clip0_1631_4010)">
<path d="M4 14.8368C5.38071 14.8368 6.5 13.7175 6.5 12.3368C6.5 10.9561 5.38071 9.83679 4 9.83679C2.61929 9.83679 1.5 10.9561 1.5 12.3368C1.5 13.7175 2.61929 14.8368 4 14.8368Z" fill="black"/>
<path d="M12 14.8368C13.3807 14.8368 14.5 13.7175 14.5 12.3368C14.5 10.9561 13.3807 9.83679 12 9.83679C10.6193 9.83679 9.5 10.9561 9.5 12.3368C9.5 13.7175 10.6193 14.8368 12 14.8368Z" fill="black"/>
<path d="M20 14.8368C21.3807 14.8368 22.5 13.7175 22.5 12.3368C22.5 10.9561 21.3807 9.83679 20 9.83679C18.6193 9.83679 17.5 10.9561 17.5 12.3368C17.5 13.7175 18.6193 14.8368 20 14.8368Z" fill="black"/>
</g>
<defs>
<clipPath id="clip0_1631_4010">
<rect width="24" height="24" fill="white" transform="translate(0 0.836792)"/>
</clipPath>
</defs>
</svg>
