<svg width="24" height="24" viewBox="0 0 24 24" fill="none" xmlns="http://www.w3.org/2000/svg">
<path d="M12.5789 5.15789H8.67053C8.1401 5.15789 7.63139 5.36861 7.25632 5.74368L6.32263 6.67737C5.94756 7.05244 5.43885 7.26316 4.90842 7.26316H3C1.89543 7.26316 1 8.15859 1 9.26316L1 20C1 21.1046 1.89543 22 3 22H17.9474C19.0519 22 19.9474 21.1046 19.9474 20V12.5263M16.7895 5.15789H23.1053M19.9474 8.31579V2M10.4737 18.8421C12.7991 18.8421 14.6842 16.957 14.6842 14.6316C14.6842 12.3062 12.7991 10.4211 10.4737 10.4211C8.14827 10.4211 6.26316 12.3062 6.26316 14.6316C6.26316 16.957 8.14827 18.8421 10.4737 18.8421Z" stroke="black" stroke-width="1.6" stroke-linecap="round" stroke-linejoin="round"/>
</svg>
