<svg width="24" height="24" viewBox="0 0 24 24" fill="none" xmlns="http://www.w3.org/2000/svg">
<path d="M7.44444 14.2222C7.44444 12.9949 6.44952 12 5.22222 12C3.99492 12 3 12.9949 3 14.2222V16.4444C3 17.6717 3.99492 18.6667 5.22222 18.6667C6.44952 18.6667 7.44444 17.6717 7.44444 16.4444V14.2222Z" fill="black" stroke="black" stroke-width="2" stroke-linecap="round" stroke-linejoin="round"/>
<path d="M20.7779 14.2222C20.7779 12.9949 19.783 12 18.5557 12C17.3284 12 16.3335 12.9949 16.3335 14.2222V16.4444C16.3335 17.6717 17.3284 18.6667 18.5557 18.6667C19.783 18.6667 20.7779 17.6717 20.7779 16.4444V14.2222Z" fill="black" stroke="black" stroke-width="2" stroke-linecap="round" stroke-linejoin="round"/>
<path d="M3 14.2222V10.8889C3 8.53141 3.93651 6.27049 5.6035 4.6035C7.27049 2.93651 9.53141 2 11.8889 2C14.2464 2 16.5073 2.93651 18.1743 4.6035C19.8413 6.27049 20.7778 8.53141 20.7778 10.8889V14.2222" stroke="black" stroke-width="2" stroke-linecap="round" stroke-linejoin="round"/>
<path d="M18.5553 18.6667C18.5553 19.5507 17.853 20.3986 16.6027 21.0237C15.3525 21.6488 13.6568 22 11.8887 22" stroke="black" stroke-width="2" stroke-linecap="round" stroke-linejoin="round"/>
</svg>
