<svg width="28" height="27" viewBox="0 0 28 27" fill="none" xmlns="http://www.w3.org/2000/svg">
<path d="M14.0571 0.618896C6.28571 0.618896 0 5.64747 0 11.7046C0 15.7046 2.62857 19.1332 6.62857 21.076C6.28571 22.2189 5.6 25.076 5.37143 25.6475C5.25714 26.4475 5.71429 26.4475 6.05714 26.2189C6.28571 26.1046 9.94286 23.5903 11.4286 22.5618C12.2286 22.676 13.1429 22.7903 14.0571 22.7903C21.8286 22.7903 28 17.876 28 11.7046C28 5.64747 21.7143 0.618896 14.0571 0.618896Z" fill="#391B1B"/>
<path d="M8.4571 8.50464H4.34282C3.99996 8.50464 3.6571 8.8475 3.6571 9.19035C3.6571 9.53321 3.99996 9.87607 4.34282 9.87607H5.71425V14.7904C5.71425 15.0189 5.82853 15.1332 5.94282 15.2475C6.0571 15.3618 6.28568 15.4761 6.39996 15.4761H6.51425C6.74282 15.4761 6.85711 15.3618 6.97139 15.2475C7.08568 15.1332 7.19996 14.9046 7.19996 14.7904V9.87607H8.4571C8.79996 9.87607 9.14282 9.53321 9.14282 9.19035C9.14282 8.73321 8.79996 8.50464 8.4571 8.50464Z" fill="#FAE300"/>
<path d="M18.2857 14.1047H16.3428V9.07612C16.3428 8.61898 15.9999 8.27612 15.5428 8.27612C15.0857 8.27612 14.7428 8.61898 14.7428 9.07612V14.4476V14.5618V14.6761C14.7428 15.019 14.9714 15.3618 15.4285 15.3618H18.2857C18.6285 15.3618 18.9714 15.1333 18.9714 14.6761C18.8571 14.4476 18.6285 14.1047 18.2857 14.1047Z" fill="#FAE300"/>
<path d="M24.3428 14.3332L22.1714 11.5904L24.1142 9.64752C24.3428 9.41895 24.3428 8.96181 24.1142 8.73324C23.8857 8.50467 23.4285 8.50467 23.2 8.73324L20.8 11.1332V9.19038C20.8 8.73324 20.4571 8.39038 20 8.39038C19.5428 8.39038 19.2 8.73324 19.2 9.19038V14.7904C19.2 15.2475 19.5428 15.5904 20 15.5904C20.4571 15.5904 20.8 15.2475 20.8 14.7904V13.0761L21.2571 12.619L23.3142 15.2475C23.5428 15.5904 24 15.5904 24.2285 15.3618C24.4571 15.1332 24.5714 14.6761 24.3428 14.3332Z" fill="#FAE300"/>
<path d="M14.2856 14.5618L12.2285 8.96181C12.1142 8.61895 11.7713 8.39038 11.3142 8.39038C10.857 8.39038 10.3999 8.73324 10.2856 9.07609V9.19038L8.22846 14.5618C8.11417 14.9047 8.34275 15.2475 8.6856 15.4761C9.02846 15.5904 9.37132 15.3618 9.59989 15.019L9.94275 13.9904H12.6856L13.0285 15.019C13.1427 15.3618 13.4856 15.5904 13.9427 15.4761C14.1713 15.2475 14.3999 14.9047 14.2856 14.5618ZM10.2856 12.7332L11.1999 10.1047L12.1142 12.7332H10.2856Z" fill="#FAE300"/>
</svg>
